<svg xmlns="http://www.w3.org/2000/svg" xmlns:xlink="http://www.w3.org/1999/xlink" version="1.1" id="Livello_1" x="0px" y="0px" viewBox="0 0 300 300" style="enable-background:new 0 0 300 300;" xml:space="preserve">
<g>
	<path d="M1.6,161.5c1.9-2.8,3.3-6.1,5.8-8.3c4.9-4.5,12.5-4.4,17.8-0.3c1.2,0.9,2.3,2,3.4,3.1c21.2,21.2,42.5,42.4,63.7,63.7   c0.8,0.8,1.5,1.7,2.9,3.3c1-1.4,1.6-2.5,2.5-3.4c57.6-57.6,115.3-115.3,172.9-172.9c4.5-4.5,9.4-6.9,15.8-5.2   c10.2,2.8,14.3,15,7.7,23.3c-0.8,1.1-1.8,2-2.7,3c-61.4,61.4-122.9,122.9-184.3,184.3c-6.2,6.2-12.8,7.6-19.2,3.9   c-1.6-0.9-3.1-2.3-4.5-3.6C57.8,227,32.4,201.7,7.1,176.2c-2.4-2.4-3.7-5.9-5.6-8.9C1.6,165.4,1.6,163.5,1.6,161.5z"/>
</g>
</svg>