<?xml version="1.0" encoding="utf-8"?>
<!-- Generator: Adobe Illustrator 28.0.0, SVG Export Plug-In . SVG Version: 6.00 Build 0)  -->
<svg version="1.1" xmlns="http://www.w3.org/2000/svg" xmlns:xlink="http://www.w3.org/1999/xlink"
	x="0px" y="0px" viewBox="0 0 28.3 28.3" style="enable-background:new 0 0 28.3 28.3;"
	xml:space="preserve">
<path class="st0" d="M27.7,6.1L27.7,6.1l-0.8,0l-0.5,3.2l-0.1,0.3l-0.5-0.1c-0.5-0.1-0.9-0.5-1.2-1c-0.5-0.6-1.1-1.3-2.3-1.3
	c-1.2,0-1.8,0.7-2.3,1.3c-0.2,0.2-0.4,0.5-0.7,0.7V8.4c0-1.5-0.8-2.9-2.1-3.6c-0.2-0.1-0.4-0.2-0.6-0.3v0c0,0,0,0,0,0l0,0.9
	c1.1,0.6,1.8,1.8,1.8,3V16l0,0c0,0.1,0,0.4-0.1,0.6c0,0-0.1,0.1-0.3,0.1c-0.2,0-0.2-0.1-0.3-0.1c-0.1-0.1-0.1-0.3-0.1-0.4v-0.1
	l0-0.1l0-4.1l-0.8,0h0l0,0v4.1c0,0,0,0.1,0,0.1v2.2l0,0c0,0.1,0,0.4-0.1,0.6c0,0-0.1,0.1-0.3,0.1c-0.2,0-0.2-0.1-0.3-0.1
	C16.1,19,16,18.8,16,18.6v-0.1l0-0.1l0-6.5l-0.8,0v6.5c0,0,0,0.1,0,0.1v0.6l0,0c0,0.1,0,0.4-0.1,0.6c0,0-0.1,0.1-0.3,0.1
	c-0.2,0-0.2-0.1-0.3-0.1c-0.1-0.1-0.1-0.4-0.1-0.6v-0.6c0-0.1,0-0.2,0-0.2l0-6.5l-0.8,0v6.4l0,0.1v0.2c0,0.1,0,0.3-0.1,0.4
	c0,0-0.1,0.1-0.3,0.1c-0.2,0-0.2-0.1-0.3-0.1c-0.1-0.1-0.1-0.4-0.1-0.6l0-6.5l-0.8,0v6.4c0,0.2,0,0.8,0.3,1.2
	c0.2,0.2,0.4,0.4,0.9,0.4c0.2,0,0.3,0,0.5-0.1c0.1,0.2,0.2,0.4,0.3,0.5c0.2,0.2,0.4,0.4,0.9,0.4s0.7-0.2,0.9-0.4
	c0.1-0.1,0.2-0.3,0.2-0.5v0c0.1,0.1,0.3,0.1,0.5,0.1c0.5,0,0.7-0.2,0.9-0.4c0.4-0.4,0.4-1.1,0.3-1.2l0-0.7v-0.2
	c0.1,0,0.3,0.1,0.4,0.1c0.5,0,0.7-0.2,0.9-0.4c0.4-0.4,0.4-1.1,0.3-1.2v-5.3l0-0.6c0.6-0.3,1-0.7,1.3-1.1c0.5-0.5,0.9-1,1.7-1
	c0.8,0,1.2,0.5,1.7,1c0.4,0.5,0.9,1.1,1.8,1.2l0.4,0.1l-2.2,12.8l-19.4,0L2.2,10.4l0.4-0.1C3.6,10.1,4.1,9.5,4.5,9
	C5,8.5,5.4,8,6.2,8C7,8,7.4,8.5,7.9,9c0.3,0.4,0.7,0.8,1.3,1v4c0,0.2,0,0.8,0.3,1.2c0.2,0.2,0.4,0.4,0.9,0.4c0.5,0,0.7-0.2,0.9-0.4
	c0.4-0.4,0.3-1.1,0.3-1.2l0-3.5c0.7-0.1,1.4-0.5,2-0.9V8.5l0,0c-0.7,0.8-1.7,1.3-2.8,1.3v4.3l0,0c0,0.1,0,0.4-0.1,0.6
	c0,0-0.1,0.1-0.3,0.1s-0.2-0.1-0.3-0.1C10,14.6,10,14.3,10,14.2l0-5.8c0-1.3,0.8-2.5,2-3.2l0-0.7V4.4c0,0,0,0,0,0l0,0
	c-1.7,0.6-2.8,2.2-2.8,4v0.8C8.9,9,8.7,8.7,8.5,8.5C8,7.9,7.4,7.2,6.2,7.2C5,7.2,4.4,7.9,3.9,8.5C3.5,9,3.1,9.4,2.5,9.5L2.1,9.6h0
	L1.5,6.1l-0.7,0H0.7v0h0L3.8,24h20.8l2.7-15.3L27.7,6.1C27.7,6.1,27.7,6.1,27.7,6.1z"/>
</svg>