<svg xmlns="http://www.w3.org/2000/svg" xmlns:xlink="http://www.w3.org/1999/xlink" version="1.1" x="0px" y="0px" viewBox="0 0 300 300" style="enable-background:new 0 0 300 300;" xml:space="preserve">
	<path class="st0" d="M278.4,2.1c8.5,3,10.9,8.8,7.1,17.2c-2.8,6.1-5.5,12.3-8.3,18.5c-2.6,5.7-5.3,11.3-7.9,16.9  c-2.4,5.1-4.8,10.3-7.1,15.4c-2.7,5.8-5.4,11.6-8.1,17.4c-5.1,11.1-10.2,22.3-15.3,33.5c-2.6,5.7-5.3,11.4-7.9,17.2  c-2.3,5-4.6,10-6.9,14.9c-2.7,5.7-5.3,11.4-8,17.1c-2.4,5.2-4.9,10.4-7.3,15.7c-3,6.5-5.9,12.9-8.8,19.4c-2.4,5.3-4.9,10.6-7.3,16  c-2.4,5.2-4.9,10.5-7.3,15.7c-2.5,5.4-5,10.8-7.5,16.2c-2.4,5.1-4.7,10.1-7.1,15.2c-3.7,7.9-7.4,15.7-11.2,23.5  c-2.8,5.7-7.3,8-12.9,6.1c-2.3-0.8-4.7-3-6-5.2c-3.2-5.9-5.8-12.2-8.7-18.3c-1.8-3.9-3.7-7.8-5.5-11.8c-3.2-7-6.4-14.1-9.6-21.1  c-2.7-5.8-5.4-11.6-8.1-17.4c-2.3-5-4.7-10-6.9-14.9c-3.1-6.7-6.1-13.4-9.1-20.1c-2.4-5.2-4.8-10.5-7.2-15.7  c-2.5-5.3-4.9-10.6-7.4-15.9c-2.4-5.1-4.8-10.3-7.2-15.4c-2.8-6-5.6-12.1-8.4-18.1c-5.2-11.2-10.3-22.5-15.5-33.7  c-2.5-5.4-5-10.8-7.5-16.2c-2.4-5.1-4.8-10.3-7.2-15.4c-2.7-5.9-5.4-11.8-8.2-17.7c-2.4-5.2-4.9-10.5-7.3-15.7  c-1.7-3.7-3.3-7.4-5-11.1c0-0.7,0-1.4,0-2.2c1-4.9,3.8-8.2,8.6-9.7c1.4,0,2.9,0,4.3,0c1.6,0.9,3.4,1.5,4.9,2.6  c4.8,3.6,9.6,7.4,14.4,11c4,3,8,5.8,12,8.8c5.9,4.4,11.7,9,17.5,13.4c4.3,3.2,8.8,6.3,13.1,9.6c6,4.5,11.8,9.1,17.8,13.6  c4.5,3.4,9,6.6,13.5,9.9c3.8,2.8,7.5,5.7,11.3,8.5c4.5,3.3,9,6.6,13.5,9.9c2.3,1.7,4.5,3.6,6.9,5.4c2.7-2.2,5.2-4.2,7.7-6.1  c4.7-3.5,9.5-6.9,14.2-10.4c5.5-4.2,10.9-8.4,16.5-12.6c4.5-3.4,9.1-6.5,13.5-9.9c5.8-4.3,11.4-8.8,17.1-13.1  c4.4-3.3,8.9-6.4,13.3-9.7c5.7-4.3,11.2-8.6,16.9-12.9c6.1-4.6,12.3-9.1,18.5-13.6c2.3-1.6,4.7-3,7.1-4.5  C275.9,2.1,277.2,2.1,278.4,2.1z"/>
</svg>