<?xml version="1.0" encoding="utf-8"?>
<svg version="1.1" xmlns="http://www.w3.org/2000/svg" xmlns:xlink="http://www.w3.org/1999/xlink"
	x="0px" y="0px" viewBox="0 0 28.3 28.3" style="enable-background:new 0 0 28.3 28.3;"
	xml:space="preserve">
<path class="st0" d="M14.2,15.3l9.8,6.9l1.1,2H3.4l1.2-2C4.5,22.1,14.2,15.3,14.2,15.3z M13.3,14.7L5.7,20l4.3-7.6L13.3,14.7z
	 M14.2,14.1l-3.6-2.5l3.6-6.3l3.6,6.3L14.2,14.1z M15.1,14.7l3.3-2.3l4.4,7.7C22.8,20.1,15.1,14.7,15.1,14.7z M19.2,11.8l8.5-6
	L27.1,5l-8.5,5.9l-4.4-7.7L9.7,11L1.2,5L0.6,5.8l8.6,6l-5.5,9.5l-3.1,2.2l0.6,0.8l1.4-1L1.7,25l0,0.1l0,0.1h25l-1-1.7l1.4,1l0.6-0.8
	l-3-2.1L19.2,11.8z"/>
</svg>