<?xml version="1.0" encoding="utf-8"?>
<!-- Generator: Adobe Illustrator 28.0.0, SVG Export Plug-In . SVG Version: 6.00 Build 0)  -->
<svg version="1.1" id="Livello_1" xmlns="http://www.w3.org/2000/svg" xmlns:xlink="http://www.w3.org/1999/xlink" x="0px" y="0px"
	 viewBox="0 0 300 124" style="enable-background:new 0 0 300 124;" xml:space="preserve">
<path d="M180.4,10.3c-7.7,8.5-6.3,8.3-2.6,15.5c2.2,4.3,1.9,10.6,5,10.6c3.2,0-1.1,7.9,8.4,13.9s9.1,4.4,11.5,16s6.5,20.6-0.2,10.8
	c-6.7-9.9-8.6-13.6-12.7-13.9s-1.9-10.2-6.5-11.3c-4.6-1.1-6.1-8.3-8.9-10.9c-2.8-2.6,0.8-12.2-1.3-14.8c-4.6-5.8,2.5-14.2-2.2-11.1
	c-3.7,2.5-1.3,8.6-9.7,11.1s-2.6,3.7-5.3,3.8c-2.8,0.1,10.2,11,7.8,14.7s4,13.8,8.1,17.2c4,3.4-7.8-5.9-12.3-9.8
	c-4.5-3.8-2.9-14-5.9-16.8c-2.9-2.8-2-8.3-5.9-9s-1.3,1.9-7.4,1.1c-6.1-0.8-7,2.7-9.4,1.5s-3.7,4.2-11.2,8.7
	c-20.7,12.7-3.9,7.3,14.4,15c6.3,2.6,13.3,11.6,20.1,11.6c5.6,0,12.1,4.6,15.2,7.3c8.8,7.7,11,10.4,23.6,12.4
	c17,2.7,29.8,20.4,39.9,23.6c11,3.5-14.8-1.9-30.1-11.4c-15.4-9.5-19.8-6-31.8-9.1c-12-3.1-24.3-25.6-43.2-29.3
	c-16-3.2-8.2-5.2-20.5-7.1C92.2,48.3,91.4,9.2,85.1,25.7c-2,5.1-0.4,7.3-5.8,8.9c-5.2,1.5-0.3,7.2,2.3,12.2s1.5,17.8,10.4,25
	c8.9,7.2-10.8-4.5-14.2-8.6c-3.5-4.1,0.3-14.1-3.1-16.7s-3.7-4.8-2.8-7.2c0.9-2.4-4.5-1.9-8.6,2.4S59.3,51,55,52
	c-4.3,1,13.9,3.8,14.8,22.9c1,21.5,7.6,28.7,4.2,25.4c-4.9-4.8-4.6-8.5-9.8-14.3s-2.5-19.8-6-23c-6.8-6.2-3.2,4-9.6,9.3
	c-3.6,2.9,2.8-15.5-0.1-18.6c-1-1.1,0.1,3-4.9,3.3c-5,0.2-4.3,7.2-10.6,11.7S23.9,83,19.5,80.8c-8.8-4.5-9.9-10.5-13.7-1.3
	c-1.7,4.2-3.7,5.2-5.8,5.6l0,38.8h300v-37c-0.9-0.2-1.8-0.5-2.7-0.8c-17.3-5.1-15-19-26-19.3c-3.4-0.1-9.3-12.1-14.5-14.2
	c-5.2-2.1-12.1-18.3-15.6-14.5c-3.5,3.9-17.9-14.3-19.7-14.3s-7.6-10.7-8.4-8.3c-2,5.8,4.7,8.6,1.7,16.4s2.3,13,4.5,16.7
	c2.2,3.7-7.3-1.6-6.7,4.6s8.2,15.7,5.6,21.7c-2.6,6-8.4,4.1-1.1,9.2c7.3,5.1,6.3,2.8-2.4,1c-8.7-1.8-3.2-8.6-4.7-14.5
	c-1.5-5.8-5-16.9-7.3-21.5c-2.2-4.6,5.2-9.3,2-14.1c-3.2-4.8-11.4-14.5-10.8-15.7c0.6-1.2,14.3,7.2,16,0.5s4.5-11.3-3.2-3.5
	S191.3,1.7,187.3,0.1C183.6-1.5,185.4,4.9,180.4,10.3z"/>
</svg>
