<?xml version="1.0" encoding="utf-8"?>
<!-- Generator: Adobe Illustrator 28.1.0, SVG Export Plug-In . SVG Version: 6.00 Build 0)  -->
<svg version="1.1" id="Livello_1" xmlns="http://www.w3.org/2000/svg"
	xmlns:xlink="http://www.w3.org/1999/xlink" x="0px" y="0px"
	viewBox="0 0 28.3 28.3" style="enable-background:new 0 0 28.3 28.3;" xml:space="preserve">
<path d="M10.6,22.6H1.8l0.4-0.7c1.5-2.4,2.5-4,2.8-4.6c1.2-2,2.1-3.1,5.1-3.1h14.6l1.8,6.6l0.4,1.8C26.9,22.6,10.6,22.6,10.6,22.6z
	 M28,23.6L22.9,4.8H7.1v0.8l15.2,0l1.7,6.1l0.4,1.6H10.1c-3.3,0-4.5,1.4-5.8,3.5c-0.6,0.9-2.9,4.7-3.6,5.9l-0.2,0.4l-0.1,0.2l0,0
	l0,0H28V23.6z"/>
<path d="M15.1,17.7c-0.4,0-0.7,0.3-0.7,0.7c0,0.4,0.3,0.7,0.7,0.7s0.7-0.3,0.7-0.7S15.6,17.7,15.1,17.7"/>
</svg>