<svg width="967" height="446" viewBox="0 0 967 446" fill="none" xmlns="http://www.w3.org/2000/svg">
<g clip-path="url(#clip0_25_2)">
<path d="M221.22 228.4L0 183.52V130L221.22 177.54H222.68L443.9 130V183.52L222.89 228.4H221.22Z" fill="black"/>
<path d="M222.89 215.5L443.9 260.38V313.89L222.68 266.36H221.22L0 313.89V260.38L221.22 215.5H222.89Z" fill="black"/>
<path d="M228.4 222.68L183.52 443.9H130L177.54 222.68V221.22L130 0H183.52L228.4 221.01V222.68Z" fill="black"/>
<path d="M215.5 221.01L260.37 0H313.89L266.36 221.22V222.68L313.89 443.9H260.37L215.5 222.68V221.01Z" fill="black"/>
<path d="M693.54 203.71V204.99L726.64 445.62H680.17L652.8 234.27H651.52V445.62H605.05V0H651.52V186.53H652.8L679.53 0H726.64L693.54 203.71Z" fill="black"/>
<path d="M836.77 203.71V204.99L869.87 445.62H823.4L796.02 234.27H794.75V445.62H748.28V0H794.75V186.53H796.02L822.76 0H869.87L836.77 203.71Z" fill="black"/>
<path d="M963.44 43.29H937.98V196.07H960.26V238.73H937.98V402.97H966.62V445.62H891.51V0.640015H963.44V43.29Z" fill="black"/>
<path d="M520.39 23.9199C521.533 24.7127 523.732 26.6466 526.832 31.1904C532.63 39.6876 538.745 53.4586 544.239 72.498C555.141 110.274 562.19 163.778 562.19 223.81C562.19 283.841 555.141 337.346 544.239 375.122C538.745 394.161 532.63 407.933 526.832 416.43C523.732 420.973 521.534 422.906 520.39 423.699C519.246 422.906 517.047 420.973 513.947 416.43C508.15 407.933 502.036 394.161 496.541 375.122C485.639 337.346 478.59 283.841 478.59 223.81C478.59 163.778 485.639 110.274 496.541 72.498C502.036 53.4587 508.15 39.6875 513.947 31.1904C517.048 26.6468 519.246 24.7128 520.39 23.9199Z" stroke="black" stroke-width="45"/>
</g>
<defs>
<clipPath id="clip0_25_2">
<rect width="966.62" height="445.62" fill="white"/>
</clipPath>
</defs>
</svg>
