<?xml version="1.0" encoding="UTF-8"?>
<svg xmlns="http://www.w3.org/2000/svg" viewBox="0 0 966.62 445.62">
  <polygon class="cls-1" points="221.22 228.4 0 183.52 0 130 221.22 177.54 222.68 177.54 443.9 130 443.9 183.52 222.89 228.4 221.22 228.4"/>
  <polygon class="cls-1" points="222.89 215.5 443.9 260.38 443.9 313.89 222.68 266.36 221.22 266.36 0 313.89 0 260.38 221.22 215.5 222.89 215.5"/>
  <polygon class="cls-1" points="228.4 222.68 183.52 443.9 130 443.9 177.54 222.68 177.54 221.22 130 0 183.52 0 228.4 221.01 228.4 222.68"/>
  <polygon class="cls-1" points="215.5 221.01 260.37 0 313.89 0 266.36 221.22 266.36 222.68 313.89 443.9 260.37 443.9 215.5 222.68 215.5 221.01"/>
  <path class="cls-1" d="M527.39,289.65l-6.37-129.23-2.55-98.67h-1.28l-2.55,98.67-6.37,129.23h19.1Zm57.29,155.97h-50.29l-5.09-113.31h-22.92l-5.09,113.31h-45.2L486.65,0h64.3l33.74,445.62Z"/>
  <polygon class="cls-1" points="693.54 203.71 693.54 204.99 726.64 445.62 680.17 445.62 652.8 234.27 651.52 234.27 651.52 445.62 605.05 445.62 605.05 0 651.52 0 651.52 186.53 652.8 186.53 679.53 0 726.64 0 693.54 203.71"/>
  <polygon class="cls-1" points="836.77 203.71 836.77 204.99 869.87 445.62 823.4 445.62 796.02 234.27 794.75 234.27 794.75 445.62 748.28 445.62 748.28 0 794.75 0 794.75 186.53 796.02 186.53 822.76 0 869.87 0 836.77 203.71"/>
  <polygon class="cls-1" points="963.44 43.29 937.98 43.29 937.98 196.07 960.26 196.07 960.26 238.73 937.98 238.73 937.98 402.97 966.62 402.97 966.62 445.62 891.51 445.62 891.51 .64 963.44 .64 963.44 43.29"/>
</svg>